<svg width="32" height="32" viewBox="0 0 32 32" fill="none" xmlns="http://www.w3.org/2000/svg">
<path opacity="0.2" d="M8 7H24C24.2652 7 24.5196 7.10536 24.7071 7.29289C24.8946 7.48043 25 7.73478 25 8V24C25 24.2652 24.8946 24.5196 24.7071 24.7071C24.5196 24.8946 24.2652 25 24 25H8C7.73478 25 7.48043 24.8946 7.29289 24.7071C7.10536 24.5196 7 24.2652 7 24L7 8C7 7.73478 7.10536 7.48043 7.29289 7.29289C7.48043 7.10536 7.73478 7 8 7Z" fill="#6448E7"/>
<path d="M6 8L6 24C6 24.5304 6.21071 25.0391 6.58579 25.4142C6.96086 25.7893 7.46957 26 8 26H24C24.5304 26 25.0391 25.7893 25.4142 25.4142C25.7893 25.0391 26 24.5304 26 24V8C26 7.46957 25.7893 6.96086 25.4142 6.58579C25.0391 6.21071 24.5304 6 24 6H8C7.46957 6 6.96086 6.21071 6.58579 6.58579C6.21071 6.96086 6 7.46957 6 8ZM24 8V24H8L8 8H24ZM7 2H25C25.2652 2 25.5196 2.10536 25.7071 2.29289C25.8946 2.48043 26 2.73478 26 3C26 3.26522 25.8946 3.51957 25.7071 3.70711C25.5196 3.89464 25.2652 4 25 4H7C6.73478 4 6.48043 3.89464 6.29289 3.70711C6.10536 3.51957 6 3.26522 6 3C6 2.73478 6.10536 2.48043 6.29289 2.29289C6.48043 2.10536 6.73478 2 7 2ZM7 28H25C25.2652 28 25.5196 28.1054 25.7071 28.2929C25.8946 28.4804 26 28.7348 26 29C26 29.2652 25.8946 29.5196 25.7071 29.7071C25.5196 29.8946 25.2652 30 25 30H7C6.73478 30 6.48043 29.8946 6.29289 29.7071C6.10536 29.5196 6 29.2652 6 29C6 28.7348 6.10536 28.4804 6.29289 28.2929C6.48043 28.1054 6.73478 28 7 28Z" fill="#6448E7"/>
</svg>
