<svg width="32" height="32" viewBox="0 0 32 32" fill="none" xmlns="http://www.w3.org/2000/svg">
<path opacity="0.2" d="M28 10L16 17L4 10L16 3L28 10Z" fill="#6448E7"/>
<path d="M28.8638 21.5C28.9958 21.7292 29.0317 22.0014 28.9635 22.257C28.8954 22.5126 28.7287 22.7308 28.5 22.8638L16.5 29.8638C16.3471 29.9529 16.1733 29.9999 15.9963 29.9999C15.8192 29.9999 15.6454 29.9529 15.4925 29.8638L3.4925 22.8638C3.26712 22.7283 3.10415 22.5096 3.03888 22.2549C2.9736 22.0001 3.01128 21.73 3.14375 21.5028C3.27622 21.2757 3.49282 21.1099 3.74666 21.0413C4.0005 20.9727 4.27114 21.0068 4.5 21.1363L16 27.8425L27.5 21.1363C27.7292 21.0042 28.0014 20.9683 28.257 21.0365C28.5126 21.1047 28.7308 21.2713 28.8638 21.5ZM27.5 15.1363L16 21.8425L4.5 15.1363C4.27231 15.0229 4.00997 15.0006 3.76638 15.0738C3.5228 15.147 3.31627 15.3103 3.18884 15.5305C3.06141 15.7506 3.02266 16.011 3.08046 16.2587C3.13827 16.5064 3.28829 16.7228 3.5 16.8638L15.5 23.8638C15.6529 23.9529 15.8267 23.9999 16.0037 23.9999C16.1808 23.9999 16.3546 23.9529 16.5075 23.8638L28.5075 16.8638C28.6228 16.7986 28.7239 16.7111 28.8051 16.6065C28.8863 16.5019 28.9459 16.3822 28.9804 16.2543C29.015 16.1265 29.0238 15.9931 29.0064 15.8618C28.9889 15.7305 28.9456 15.604 28.8789 15.4896C28.8122 15.3752 28.7234 15.2752 28.6177 15.1954C28.5121 15.1156 28.3916 15.0576 28.2633 15.0247C28.135 14.9918 28.0015 14.9848 27.8705 15.0039C27.7394 15.0231 27.6135 15.0681 27.5 15.1363ZM3 10C3.0004 9.82487 3.04679 9.6529 3.13454 9.50131C3.22229 9.34973 3.34831 9.22385 3.5 9.13627L15.5 2.13627C15.6529 2.04711 15.8267 2.00012 16.0037 2.00012C16.1808 2.00012 16.3546 2.04711 16.5075 2.13627L28.5075 9.13627C28.6585 9.22434 28.7837 9.35044 28.8707 9.50199C28.9578 9.65354 29.0036 9.82525 29.0036 10C29.0036 10.1748 28.9578 10.3465 28.8707 10.4981C28.7837 10.6496 28.6585 10.7757 28.5075 10.8638L16.5075 17.8638C16.3546 17.9529 16.1808 17.9999 16.0037 17.9999C15.8267 17.9999 15.6529 17.9529 15.5 17.8638L3.5 10.8638C3.34831 10.7762 3.22229 10.6503 3.13454 10.4987C3.04679 10.3471 3.0004 10.1752 3 10ZM5.985 10L16 15.8425L26.015 10L16 4.15752L5.985 10Z" fill="#6448E7"/>
</svg>
