<svg width="32" height="32" viewBox="0 0 32 32" fill="none" xmlns="http://www.w3.org/2000/svg">
<path opacity="0.2" d="M26.0002 13C26.0015 14.5152 25.6579 16.0108 24.9954 17.3735C24.3329 18.7362 23.3689 19.9302 22.1764 20.865C21.8122 21.1472 21.5171 21.5086 21.3133 21.9219C21.1095 22.3351 21.0024 22.7892 21.0002 23.25V24C21.0002 24.2652 20.8948 24.5196 20.7073 24.7071C20.5197 24.8946 20.2654 25 20.0002 25H12.0002C11.7349 25 11.4806 24.8946 11.293 24.7071C11.1055 24.5196 11.0002 24.2652 11.0002 24V23.25C10.9997 22.7918 10.8947 22.3397 10.6933 21.9282C10.4918 21.5166 10.1992 21.1564 9.83765 20.875C8.64887 19.9463 7.68599 18.7603 7.02133 17.4061C6.35668 16.0519 6.00755 14.5647 6.00015 13.0562C5.97015 7.63623 10.3402 3.12498 15.7589 2.99998C17.0923 2.9678 18.4186 3.20269 19.6599 3.69081C20.9011 4.17893 22.0322 4.91042 22.9864 5.84223C23.9407 6.77404 24.699 7.88734 25.2165 9.11659C25.7341 10.3458 26.0005 11.6662 26.0002 13Z" fill="#6448E7"/>
<path d="M22.0002 29C22.0002 29.2652 21.8948 29.5196 21.7073 29.7071C21.5197 29.8947 21.2654 30 21.0002 30H11.0002C10.7349 30 10.4806 29.8947 10.2931 29.7071C10.1055 29.5196 10.0002 29.2652 10.0002 29C10.0002 28.7348 10.1055 28.4805 10.2931 28.2929C10.4806 28.1054 10.7349 28 11.0002 28H21.0002C21.2654 28 21.5197 28.1054 21.7073 28.2929C21.8948 28.4805 22.0002 28.7348 22.0002 29ZM27.0002 13C27.0045 14.6671 26.6279 16.3131 25.8991 17.8124C25.1704 19.3117 24.1087 20.6248 22.7952 21.6513C22.5496 21.8395 22.3502 22.0815 22.2125 22.3585C22.0747 22.6356 22.0021 22.9406 22.0002 23.25V24C22.0002 24.5305 21.7894 25.0392 21.4144 25.4142C21.0393 25.7893 20.5306 26 20.0002 26H12.0002C11.4697 26 10.961 25.7893 10.586 25.4142C10.2109 25.0392 10.0002 24.5305 10.0002 24V23.25C9.99996 22.9443 9.92965 22.6426 9.79465 22.3683C9.65965 22.094 9.46355 21.8542 9.22141 21.6675C7.91133 20.6472 6.85049 19.3423 6.11916 17.8515C5.38783 16.3607 5.00518 14.723 5.00016 13.0625C4.96766 7.10377 9.78266 2.14377 15.7352 2.00002C17.2019 1.96467 18.6608 2.22309 20.0261 2.76004C21.3914 3.297 22.6355 4.10165 23.6852 5.12663C24.7349 6.15162 25.5689 7.37623 26.1382 8.72838C26.7075 10.0805 27.0006 11.5329 27.0002 13ZM25.0002 13C25.0005 11.7996 24.7607 10.6112 24.2949 9.50488C23.8291 8.39853 23.1466 7.39654 22.2877 6.55791C21.4288 5.71928 20.4108 5.06094 19.2936 4.62165C18.1765 4.18237 16.9827 3.97101 15.7827 4.00002C10.9077 4.11502 6.97391 8.17377 7.00016 13.0488C7.00464 14.407 7.31802 15.7465 7.9166 16.9657C8.51518 18.185 9.38327 19.2521 10.4552 20.0863C10.937 20.4608 11.3267 20.9406 11.5945 21.489C11.8623 22.0374 12.001 22.6398 12.0002 23.25V24H15.0002V18.4138L11.2927 14.7075C11.105 14.5199 10.9996 14.2654 10.9996 14C10.9996 13.7347 11.105 13.4802 11.2927 13.2925C11.4803 13.1049 11.7348 12.9995 12.0002 12.9995C12.2655 12.9995 12.52 13.1049 12.7077 13.2925L16.0002 16.5863L19.2927 13.2925C19.3856 13.1996 19.4959 13.1259 19.6173 13.0756C19.7387 13.0253 19.8688 12.9995 20.0002 12.9995C20.1316 12.9995 20.2617 13.0253 20.3831 13.0756C20.5045 13.1259 20.6148 13.1996 20.7077 13.2925C20.8006 13.3854 20.8743 13.4957 20.9246 13.6171C20.9748 13.7385 21.0007 13.8686 21.0007 14C21.0007 14.1314 20.9748 14.2615 20.9246 14.3829C20.8743 14.5043 20.8006 14.6146 20.7077 14.7075L17.0002 18.4138V24H20.0002V23.25C20.0013 22.638 20.1423 22.0343 20.4125 21.4851C20.6826 20.9359 21.0748 20.4557 21.5589 20.0813C22.634 19.2411 23.503 18.1663 24.0994 16.9391C24.6958 15.7118 25.0039 14.3645 25.0002 13Z" fill="#6448E7"/>
</svg>
