<svg width="32" height="32" viewBox="0 0 32 32" fill="none" xmlns="http://www.w3.org/2000/svg">
<path opacity="0.2" d="M29.7075 19.125L19.125 29.7075C18.9375 29.8949 18.6832 30.0002 18.4181 30.0002C18.153 30.0002 17.8988 29.8949 17.7112 29.7075L5.2925 17.2925C5.10532 17.1051 5.00012 16.8511 5 16.5863V5H16.5862C16.8511 5.00012 17.1051 5.10532 17.2925 5.2925L29.7075 17.7075C29.8009 17.8004 29.8749 17.9109 29.9255 18.0325C29.976 18.1541 30.002 18.2845 30.002 18.4163C30.002 18.548 29.976 18.6784 29.9255 18.8C29.8749 18.9216 29.8009 19.0321 29.7075 19.125Z" fill="#6448E7"/>
<path d="M30.4138 17L18 4.58626C17.815 4.39973 17.5947 4.25185 17.352 4.15121C17.1093 4.05057 16.849 3.99917 16.5863 4.00001H5.00001C4.73479 4.00001 4.48044 4.10537 4.2929 4.2929C4.10537 4.48044 4.00001 4.73479 4.00001 5.00001V16.5863C3.99917 16.849 4.05057 17.1093 4.15121 17.352C4.25185 17.5947 4.39973 17.815 4.58626 18L17 30.4138C17.1857 30.5995 17.4062 30.7469 17.6489 30.8474C17.8916 30.948 18.1517 30.9997 18.4144 30.9997C18.6771 30.9997 18.9372 30.948 19.1799 30.8474C19.4225 30.7469 19.643 30.5995 19.8288 30.4138L30.4138 19.8288C30.5995 19.643 30.7469 19.4225 30.8474 19.1799C30.948 18.9372 30.9997 18.6771 30.9997 18.4144C30.9997 18.1517 30.948 17.8916 30.8474 17.6489C30.7469 17.4062 30.5995 17.1857 30.4138 17ZM18.4138 29L6.00001 16.5863V6.00001H16.5863L29 18.4138L18.4138 29ZM12 10.5C12 10.7967 11.912 11.0867 11.7472 11.3334C11.5824 11.58 11.3481 11.7723 11.074 11.8858C10.7999 11.9994 10.4983 12.0291 10.2074 11.9712C9.9164 11.9133 9.64913 11.7704 9.43935 11.5607C9.22957 11.3509 9.08671 11.0836 9.02883 10.7926C8.97095 10.5017 9.00066 10.2001 9.11419 9.92598C9.22772 9.6519 9.41998 9.41763 9.66666 9.25281C9.91333 9.08798 10.2033 9.00001 10.5 9.00001C10.8978 9.00001 11.2794 9.15805 11.5607 9.43935C11.842 9.72065 12 10.1022 12 10.5Z" fill="#6448E7"/>
</svg>
