<svg width="32" height="32" viewBox="0 0 32 32" fill="none" xmlns="http://www.w3.org/2000/svg">
<path opacity="0.2" d="M29 20.5C29 22.4325 27.2088 24 25 24C22.7913 24 21 22.4325 21 20.5C21 18.5675 22.7913 17 25 17C27.2088 17 29 18.5675 29 20.5ZM4.35254 19H15.6475L10 7L4.35254 19Z" fill="#6448E7"/>
<path d="M10.9051 6.57373C10.8243 6.40194 10.6963 6.25668 10.5361 6.15493C10.3758 6.05318 10.1899 5.99915 10.0001 5.99915C9.81026 5.99915 9.62435 6.05318 9.46409 6.15493C9.30383 6.25668 9.17585 6.40194 9.09509 6.57373L1.09509 23.5737C1.0392 23.6926 1.00726 23.8213 1.0011 23.9525C0.994942 24.0837 1.01468 24.2148 1.0592 24.3383C1.1491 24.5879 1.33445 24.7915 1.57447 24.9044C1.81449 25.0172 2.08952 25.0302 2.33906 24.9403C2.5886 24.8504 2.79221 24.665 2.90509 24.425L4.98759 20H15.0126L17.0951 24.425C17.151 24.5438 17.2297 24.6505 17.3269 24.7389C17.424 24.8273 17.5376 24.8957 17.6611 24.9403C17.7847 24.9848 17.9158 25.0045 18.047 24.9983C18.1782 24.9922 18.3069 24.9603 18.4257 24.9044C18.5446 24.8485 18.6512 24.7697 18.7396 24.6726C18.8281 24.5755 18.8965 24.4619 18.941 24.3383C18.9855 24.2148 19.0052 24.0837 18.9991 23.9525C18.9929 23.8213 18.961 23.6926 18.9051 23.5737L10.9051 6.57373ZM5.92884 18L10.0001 9.34873L14.0713 18H5.92884ZM25.0001 12C23.4051 12 22.1588 12.4337 21.2963 13.29C21.1158 13.4782 21.0159 13.7296 21.018 13.9904C21.0202 14.2513 21.1241 14.5009 21.3078 14.6862C21.4914 14.8715 21.7402 14.9776 22.001 14.9821C22.2618 14.9865 22.514 14.8889 22.7038 14.71C23.1788 14.2387 23.9538 14 25.0001 14C26.6538 14 28.0001 15.125 28.0001 16.5V16.9025C27.1127 16.3088 26.0678 15.9944 25.0001 16C22.2426 16 20.0001 18.0187 20.0001 20.5C20.0001 22.9812 22.2426 25 25.0001 25C26.0682 25.0047 27.1132 24.689 28.0001 24.0937C28.0125 24.359 28.1298 24.6084 28.3261 24.7871C28.5225 24.9659 28.7818 25.0593 29.047 25.0469C29.3122 25.0344 29.5616 24.9171 29.7403 24.7208C29.9191 24.5245 30.0125 24.2652 30.0001 24V16.5C30.0001 14.0187 27.7576 12 25.0001 12ZM25.0001 23C23.3463 23 22.0001 21.875 22.0001 20.5C22.0001 19.125 23.3463 18 25.0001 18C26.6538 18 28.0001 19.125 28.0001 20.5C28.0001 21.875 26.6538 23 25.0001 23Z" fill="#6448E7"/>
</svg>
