<svg width="32" height="32" viewBox="0 0 32 32" fill="none" xmlns="http://www.w3.org/2000/svg">
<path d="M2.6665 15.6666C2.6665 8.48692 8.4868 2.66663 15.6665 2.66663C22.8462 2.66663 28.6665 8.48692 28.6665 15.6666C28.6665 22.8463 22.8462 28.6666 15.6665 28.6666C8.4868 28.6666 2.6665 22.8463 2.6665 15.6666Z" fill="#6448E7" fill-opacity="0.2"/>
<path fill-rule="evenodd" clip-rule="evenodd" d="M4.99984 15.6666C4.99984 21.5577 9.77547 26.3333 15.6665 26.3333C21.5575 26.3333 26.3332 21.5577 26.3332 15.6666C26.3332 9.77559 21.5575 4.99996 15.6665 4.99996C9.77547 4.99996 4.99984 9.77559 4.99984 15.6666ZM15.6665 2.66663C8.4868 2.66663 2.6665 8.48692 2.6665 15.6666C2.6665 22.8463 8.4868 28.6666 15.6665 28.6666C22.8462 28.6666 28.6665 22.8463 28.6665 15.6666C28.6665 8.48692 22.8462 2.66663 15.6665 2.66663ZM11.2005 11.2005H12.9783V20.5339H11.2005V11.2005ZM20.5341 11.2005H14.7563V12.9783H20.5341V11.2005ZM14.7563 14.978H20.5341V16.7558H14.7563V14.978ZM20.5341 18.7565H14.7563V20.5342H20.5341V18.7565Z" fill="#6448E7"/>
</svg>
