<svg width="32" height="32" viewBox="0 0 32 32" fill="none" xmlns="http://www.w3.org/2000/svg">
<path opacity="0.2" d="M20 7H12L16 3L20 7ZM16 29L20 25H12L16 29Z" fill="#6448E7"/>
<path d="M19.9998 24.0001H16.9998V8.00005H19.9998C20.1977 8.00021 20.3912 7.94165 20.5558 7.83177C20.7204 7.7219 20.8487 7.56567 20.9244 7.38284C21.0002 7.20002 21.02 6.99883 20.9813 6.80475C20.9427 6.61066 20.8473 6.43241 20.7073 6.29255L16.7073 2.29255C16.6144 2.19958 16.5041 2.12582 16.3828 2.07549C16.2614 2.02517 16.1312 1.99927 15.9998 1.99927C15.8684 1.99927 15.7383 2.02517 15.6169 2.07549C15.4955 2.12582 15.3852 2.19958 15.2923 2.29255L11.2923 6.29255C11.1523 6.43241 11.0569 6.61066 11.0183 6.80475C10.9796 6.99883 10.9994 7.20002 11.0752 7.38284C11.1509 7.56567 11.2792 7.7219 11.4438 7.83177C11.6084 7.94165 11.8019 8.00021 11.9998 8.00005H14.9998V24.0001H11.9998C11.8019 23.9999 11.6084 24.0585 11.4438 24.1683C11.2792 24.2782 11.1509 24.4344 11.0752 24.6173C10.9994 24.8001 10.9796 25.0013 11.0183 25.1954C11.0569 25.3894 11.1523 25.5677 11.2923 25.7076L15.2923 29.7076C15.3852 29.8005 15.4955 29.8743 15.6169 29.9246C15.7383 29.9749 15.8684 30.0008 15.9998 30.0008C16.1312 30.0008 16.2614 29.9749 16.3828 29.9246C16.5041 29.8743 16.6144 29.8005 16.7073 29.7076L20.7073 25.7076C20.8473 25.5677 20.9427 25.3894 20.9813 25.1954C21.02 25.0013 21.0002 24.8001 20.9244 24.6173C20.8487 24.4344 20.7204 24.2782 20.5558 24.1683C20.3912 24.0585 20.1977 23.9999 19.9998 24.0001ZM15.9998 4.4138L17.5861 6.00005H14.4136L15.9998 4.4138ZM15.9998 27.5863L14.4136 26.0001H17.5861L15.9998 27.5863Z" fill="#6448E7"/>
</svg>
