<svg width="32" height="32" viewBox="0 0 32 32" fill="none" xmlns="http://www.w3.org/2000/svg">
<path opacity="0.2" d="M30 16L24.2975 24.555C24.2061 24.692 24.0823 24.8043 23.9371 24.8819C23.7918 24.9595 23.6297 25.0001 23.465 25H5C4.73478 25 4.48043 24.8946 4.29289 24.7071C4.10536 24.5196 4 24.2652 4 24V8C4 7.73478 4.10536 7.48043 4.29289 7.29289C4.48043 7.10536 4.73478 7 5 7H23.465C23.6297 6.99989 23.7918 7.04046 23.9371 7.11809C24.0823 7.19572 24.2061 7.30801 24.2975 7.445L30 16Z" fill="#6448E7"/>
<path d="M30.8325 15.445L25.125 6.89125C24.9433 6.61728 24.6966 6.39252 24.407 6.23702C24.1174 6.08151 23.7937 6.00008 23.465 6H5C4.46957 6 3.96086 6.21071 3.58579 6.58579C3.21071 6.96086 3 7.46957 3 8V24C3 24.5304 3.21071 25.0391 3.58579 25.4142C3.96086 25.7893 4.46957 26 5 26H23.465C23.7935 25.9994 24.1168 25.9179 24.4063 25.7626C24.6958 25.6074 24.9427 25.3833 25.125 25.11L30.8288 16.555C30.9389 16.391 30.9981 16.1981 30.9988 16.0006C30.9994 15.803 30.9416 15.6097 30.8325 15.445ZM23.465 24H5V8H23.465L28.7975 16L23.465 24Z" fill="#6448E7"/>
</svg>
